#N canvas 229 280 729 501 10;
#X obj 12 4 loadbang;
#X obj 12 90 soundfiler;
#X obj 10 438 dac~;
#X obj 13 380 tabplay~ kick;
#X obj 111 441 dac~;
#X obj 222 437 dac~;
#X obj 331 434 dac~;
#X obj 222 3 loadbang;
#X obj 222 88 soundfiler;
#X obj 7 149 loadbang;
#X obj 7 242 soundfiler;
#X obj 224 149 loadbang;
#X obj 224 237 soundfiler;
#X obj 114 383 tabplay~ snare;
#X obj 225 379 tabplay~ hihat;
#X obj 334 376 tabplay~ perc;
#X obj 112 288 key;
#X obj 111 353 sel 115;
#X obj 13 353 sel 97;
#X obj 225 353 sel 100;
#X obj 334 351 sel 102;
#X msg 12 69 read -resize \$1 kick;
#X obj 12 47 pack s;
#X obj 7 194 pack s;
#X obj 224 192 pack s;
#X obj 222 46 pack s;
#X msg 222 68 read -resize \$1 snare;
#X msg 12 26 samples/kick.wav;
#X msg 7 171 samples/hihat.wav;
#X msg 7 217 read -resize \$1 hihat;
#X msg 224 171 samples/perc.wav;
#X msg 224 214 read -resize \$1 perc;
#X msg 222 25 samples/snare.wav;
#X obj 588 4 table kick;
#X obj 587 24 table snare;
#X obj 587 45 table hihat;
#X obj 588 66 table perc;
#X obj 126 11 bng 15 250 50 0 empty empty empty 17 7 0 10 -262144 -1
-1;
#X obj 126 31 openpanel;
#X obj 341 2 bng 15 250 50 0 empty empty empty 17 7 0 10 -262144 -1
-1;
#X obj 341 22 openpanel;
#X obj 127 152 bng 15 250 50 0 empty empty empty 17 7 0 10 -262144
-1 -1;
#X obj 127 172 openpanel;
#X obj 341 149 bng 15 250 50 0 empty empty empty 17 7 0 10 -262144
-1 -1;
#X obj 341 169 openpanel;
#X connect 0 0 27 0;
#X connect 3 0 2 0;
#X connect 3 0 2 1;
#X connect 7 0 32 0;
#X connect 9 0 28 0;
#X connect 11 0 30 0;
#X connect 13 0 4 0;
#X connect 13 0 4 1;
#X connect 14 0 5 0;
#X connect 14 0 5 1;
#X connect 15 0 6 0;
#X connect 15 0 6 1;
#X connect 16 0 17 0;
#X connect 16 0 19 0;
#X connect 16 0 18 0;
#X connect 16 0 20 0;
#X connect 17 0 13 0;
#X connect 18 0 3 0;
#X connect 19 0 14 0;
#X connect 20 0 15 0;
#X connect 21 0 1 0;
#X connect 22 0 21 0;
#X connect 23 0 29 0;
#X connect 24 0 31 0;
#X connect 25 0 26 0;
#X connect 26 0 8 0;
#X connect 27 0 22 0;
#X connect 28 0 23 0;
#X connect 29 0 10 0;
#X connect 30 0 24 0;
#X connect 31 0 12 0;
#X connect 32 0 25 0;
#X connect 37 0 38 0;
#X connect 38 0 21 0;
#X connect 39 0 40 0;
#X connect 40 0 26 0;
#X connect 41 0 42 0;
#X connect 42 0 29 0;
#X connect 43 0 44 0;
#X connect 44 0 31 0;
